<svg xmlns="http://www.w3.org/2000/svg" version="1.1" xmlns:xlink="http://www.w3.org/1999/xlink" xmlns:svgjs="http://svgjs.dev/svgjs" width="1440" height="560" preserveAspectRatio="none" viewBox="0 0 1440 560">
    <g mask="url(&quot;#SvgjsMask1022&quot;)" fill="none">
        <rect width="1440" height="560" x="0" y="0" fill="rgba(2, 44, 34, 1)"></rect>
        <path d="M1372.614,285.448C1386.297,284.837,1398.217,277.477,1405.633,265.962C1413.832,253.231,1419.408,237.364,1412.14,224.079C1404.659,210.405,1388.198,205.322,1372.614,205.607C1357.58,205.882,1343.312,212.622,1335.513,225.478C1327.415,238.827,1325.851,255.878,1334.065,269.155C1341.932,281.87,1357.677,286.114,1372.614,285.448" fill="rgba(6, 78, 59, 1)" class="triangle-float2"></path>
        <path d="M470.5316443026473 428.2709449876618L611.4012085821234 516.4828014553304 619.0052650095266 371.3887613828525z" fill="rgba(6, 78, 59, 1)" class="triangle-float3"></path>
        <path d="M233.51374971082186 321.9198891005419L163.36856280946523 269.0616994158072 110.51037312473049 339.20688631716376 180.6555600260871 392.06507600189855z" fill="rgba(6, 78, 59, 1)" class="triangle-float3"></path>
        <path d="M1343.2060107934637 309.19838169800124L1420.7894673035464 231.61492518791852 1343.2060107934637 154.0314686778358 1265.622554283381 231.61492518791852z" fill="rgba(6, 78, 59, 1)" class="triangle-float2"></path>
        <path d="M730.4663631420392 480.38256748548145L833.1628895453979 542.0888659121837 894.8691879721001 439.39233950882505 792.1726615687414 377.68604108212276z" fill="rgba(6, 78, 59, 1)" class="triangle-float3"></path>
        <path d="M429.005,557.432C463.316,558.878,500.294,553.113,519.319,524.523C540.144,493.228,540.505,451.4,520.913,419.318C502.044,388.42,465.197,375.699,429.005,376.632C394.572,377.519,361.647,393.724,344.951,423.851C328.713,453.153,333.139,489.073,350.981,517.428C367.665,543.942,397.707,556.113,429.005,557.432" fill="rgba(6, 78, 59, 1)" class="triangle-float2"></path>
        <path d="M801.0886507697942-25.855365814004795L737.8589461338014-6.524105127212891 798.4706894819857 78.65482148338036z" fill="rgba(6, 78, 59, 1)" class="triangle-float1"></path>
        <path d="M678.6 167.35 a153.79 153.79 0 1 0 307.58 0 a153.79 153.79 0 1 0 -307.58 0z" fill="rgba(6, 78, 59, 1)" class="triangle-float1"></path>
        <path d="M81.751,299.157C119.355,299.773,158.662,284.699,175.36,251C190.852,219.735,172.449,184.757,152.686,156.001C136.086,131.847,111.057,115.125,81.751,114.797C51.853,114.463,24.551,129.473,8.014,154.383C-10.715,182.594,-22.056,217.842,-6.688,248.016C9.877,280.539,45.257,298.559,81.751,299.157" fill="rgba(6, 78, 59, 1)" class="triangle-float3"></path>
        <path d="M1030.250463385088 483.7309405989628L1030.1395679553002 600.0928672290395 1119.1047222135708 550.7786769597883z" fill="rgba(6, 78, 59, 1)" class="triangle-float1"></path>
    </g>
    <defs>
        <mask id="SvgjsMask1022">
            <rect width="1440" height="560" fill="#ffffff"></rect>
        </mask>
        <style>
            @keyframes float1 {
                    0%{transform: translate(0, 0)}
                    50%{transform: translate(-10px, 0)}
                    100%{transform: translate(0, 0)}
                }

                .triangle-float1 {
                    animation: float1 5s infinite;
                }

                @keyframes float2 {
                    0%{transform: translate(0, 0)}
                    50%{transform: translate(-5px, -5px)}
                    100%{transform: translate(0, 0)}
                }

                .triangle-float2 {
                    animation: float2 4s infinite;
                }

                @keyframes float3 {
                    0%{transform: translate(0, 0)}
                    50%{transform: translate(0, -10px)}
                    100%{transform: translate(0, 0)}
                }

                .triangle-float3 {
                    animation: float3 6s infinite;
                }
        </style>
    </defs>
</svg>