<svg xmlns="http://www.w3.org/2000/svg" version="1.1" xmlns:xlink="http://www.w3.org/1999/xlink" xmlns:svgjs="http://svgjs.dev/svgjs" width="1440" height="560" preserveAspectRatio="none" viewBox="0 0 1440 560">
    <g mask="url(&quot;#SvgjsMask1004&quot;)" fill="none">
        <rect width="1440" height="560" x="0" y="0" fill="rgba(6, 95, 70, 1)"></rect>
        <path d="M835.098,357.858C856.69,357.059,878.831,352.789,891.088,334.995C905.099,314.655,911.553,287.017,898.214,266.229C885.525,246.453,858.579,246.88,835.098,247.737C813.635,248.52,791.733,252.918,779.484,270.56C765.357,290.906,758.128,318.533,771.437,339.424C784.159,359.394,811.436,358.734,835.098,357.858" fill="rgba(4, 120, 87, 1)" class="triangle-float2"></path>
        <path d="M468.2040476874663 548.9762114546487L509.3118913554698 597.966631829793 562.2436000841845 511.80965614021557z" fill="rgba(4, 120, 87, 1)" class="triangle-float2"></path>
        <path d="M1421.108,258.955C1470.324,260.587,1519.726,238.409,1543.295,195.173C1566.059,153.414,1555.036,102.04,1527.965,62.935C1504.445,28.96,1462.419,19.635,1421.108,18.672C1377.44,17.654,1328.935,21.036,1305.257,57.742C1280.089,96.757,1289.029,147.275,1312.195,187.51C1335.415,227.839,1374.598,257.413,1421.108,258.955" fill="rgba(4, 120, 87, 1)" class="triangle-float1"></path>
        <path d="M524.47 460.63 a93.75 93.75 0 1 0 187.5 0 a93.75 93.75 0 1 0 -187.5 0z" fill="rgba(4, 120, 87, 1)" class="triangle-float2"></path>
        <path d="M557.7301664537085 335.0166045979099L470.655971887298 271.75349915359936 494.467061009398 422.09079916432046z" fill="rgba(4, 120, 87, 1)" class="triangle-float1"></path>
        <path d="M1485.4741130125444 437.3118412706943L1342.8645184957697 444.78569342377347 1350.338370648849 587.3952879405482 1492.9479651656236 579.921435787469z" fill="rgba(4, 120, 87, 1)" class="triangle-float1"></path>
        <path d="M1379.4309675266163 209.28403882760887L1293.4902807802944 123.17938915907283 1264.1775853126817 225.40490672073503z" fill="rgba(4, 120, 87, 1)" class="triangle-float3"></path>
        <path d="M-24.678,47.057C-4.165,47.422,19.439,46.343,29.689,28.571C39.935,10.807,29.392,-10.375,18.451,-27.719C8.448,-43.577,-5.934,-57.176,-24.678,-57.615C-44.112,-58.07,-61.379,-46.448,-71.457,-29.826C-81.957,-12.508,-86.325,9.394,-75.798,26.696C-65.58,43.49,-44.333,46.708,-24.678,47.057" fill="rgba(4, 120, 87, 1)" class="triangle-float3"></path>
        <path d="M515.6807544674998-5.2340565442693645L468.9880060731258 86.40562198543778 560.6276846028329 133.09837037981174 607.3204329972069 41.45869185010462z" fill="rgba(4, 120, 87, 1)" class="triangle-float2"></path>
        <path d="M-118.08 244.19 a181.29 181.29 0 1 0 362.58 0 a181.29 181.29 0 1 0 -362.58 0z" fill="rgba(4, 120, 87, 1)" class="triangle-float1"></path>
    </g>
    <defs>
        <mask id="SvgjsMask1004">
            <rect width="1440" height="560" fill="#ffffff"></rect>
        </mask>
        <style>
            @keyframes float1 {
                    0%{transform: translate(0, 0)}
                    50%{transform: translate(-10px, 0)}
                    100%{transform: translate(0, 0)}
                }

                .triangle-float1 {
                    animation: float1 5s infinite;
                }

                @keyframes float2 {
                    0%{transform: translate(0, 0)}
                    50%{transform: translate(-5px, -5px)}
                    100%{transform: translate(0, 0)}
                }

                .triangle-float2 {
                    animation: float2 4s infinite;
                }

                @keyframes float3 {
                    0%{transform: translate(0, 0)}
                    50%{transform: translate(0, -10px)}
                    100%{transform: translate(0, 0)}
                }

                .triangle-float3 {
                    animation: float3 6s infinite;
                }
        </style>
    </defs>
</svg>