<svg xmlns="http://www.w3.org/2000/svg" version="1.1" xmlns:xlink="http://www.w3.org/1999/xlink" xmlns:svgjs="http://svgjs.dev/svgjs" width="1440" height="560" preserveAspectRatio="none" viewBox="0 0 1440 560">
    <g mask="url(&quot;#SvgjsMask1000&quot;)" fill="none">
        <rect width="1440" height="560" x="0" y="0" fill="#0e2a47"></rect>
        <path d="M999.1904770788261 526.4690812813486L1055.1535568388733 394.628327429858 867.3497232273355 470.5060015213014z" fill="rgba(28, 83, 142, 0.4)" class="triangle-float3"></path>
        <path d="M1234.664,405.689C1264.062,405.786,1288.49,385.651,1303.254,360.229C1318.094,334.677,1323.061,303.7,1308.987,277.718C1294.28,250.568,1265.533,234.3,1234.664,233.609C1202.511,232.889,1169.567,245.926,1154.342,274.255C1139.723,301.455,1150.752,333.429,1166.854,359.778C1182.11,384.742,1205.408,405.592,1234.664,405.689" fill="rgba(28, 83, 142, 0.4)" class="triangle-float2"></path>
        <path d="M-46.882976355733646 49.77282910097088L-29.365977431861413 174.4127528709277 95.27394633809543 156.89575394705548 77.75694741422319 32.255830177098645z" fill="rgba(28, 83, 142, 0.4)" class="triangle-float3"></path>
        <path d="M1448.0871236163537 388.42108969185364L1310.2331833588344 295.43743290786983 1217.2495265748505 433.29137316538913 1355.1034668323698 526.275029949373z" fill="rgba(28, 83, 142, 0.4)" class="triangle-float3"></path>
        <path d="M618.203,226.528C644.924,226.292,665.803,205.517,678.177,181.833C689.574,160.019,690.065,134.136,677.547,112.945C665.241,92.113,642.394,79.846,618.203,80.313C594.792,80.764,574.783,95.106,562.696,115.16C550.148,135.98,545.524,161.152,556.368,182.908C568.428,207.104,591.169,226.767,618.203,226.528" fill="rgba(28, 83, 142, 0.4)" class="triangle-float1"></path>
        <path d="M1005.6616685642467 417.2230966152046L1061.5231000519477 548.8243821438061 1193.1243855805494 492.96295065610514 1137.2629540928483 361.36166512750356z" fill="rgba(28, 83, 142, 0.4)" class="triangle-float2"></path>
        <path d="M975.3344644497087 203.43003911681768L1062.9961747573432 209.55994304814612 1069.1260786886714 121.8982327405117 981.464368381037 115.76832880918327z" fill="rgba(28, 83, 142, 0.4)" class="triangle-float1"></path>
        <path d="M-42.57876419758698 358.28917644965156L44.0189465182976 410.3223305167676 9.454389869529017 271.691465733767z" fill="rgba(28, 83, 142, 0.4)" class="triangle-float3"></path>
        <path d="M34.75610197699036 636.4709105184725L161.90357404387788 585.0999972548068 110.53266078021224 457.9525251879193-16.614811286675277 509.32343845158493z" fill="rgba(28, 83, 142, 0.4)" class="triangle-float1"></path>
        <path d="M1298.1376482045614 115.64716746032403L1379.7019266938432 84.3375744046759 1348.3923336381952 2.7732959153940726 1266.8280551489133 34.08288897104221z" fill="rgba(28, 83, 142, 0.4)" class="triangle-float1"></path>
    </g>
    <defs>
        <mask id="SvgjsMask1000">
            <rect width="1440" height="560" fill="#ffffff"></rect>
        </mask>
        <style>
            @keyframes float1 {
                    0%{transform: translate(0, 0)}
                    50%{transform: translate(-10px, 0)}
                    100%{transform: translate(0, 0)}
                }

                .triangle-float1 {
                    animation: float1 5s infinite;
                }

                @keyframes float2 {
                    0%{transform: translate(0, 0)}
                    50%{transform: translate(-5px, -5px)}
                    100%{transform: translate(0, 0)}
                }

                .triangle-float2 {
                    animation: float2 4s infinite;
                }

                @keyframes float3 {
                    0%{transform: translate(0, 0)}
                    50%{transform: translate(0, -10px)}
                    100%{transform: translate(0, 0)}
                }

                .triangle-float3 {
                    animation: float3 6s infinite;
                }
        </style>
    </defs>
</svg>